<svg xmlns="http://www.w3.org/2000/svg" xmlns:xlink="http://www.w3.org/1999/xlink" version="1.1" x="0px" y="0px" viewBox="0 0 100 125" enable-background="new 0 0 100 100" xml:space="preserve"><path d="M79.199,68.014L95,89.295H44.295C22.628,89.295,5,71.667,5,50.001c0-21.668,17.628-39.296,39.295-39.296  s39.294,17.628,39.294,39.296C83.589,56.258,82.076,62.455,79.199,68.014z M44.295,14.956c-19.323,0-35.044,15.722-35.044,35.045  c0,19.322,15.721,35.044,35.044,35.044h42.256L74.158,68.354l0.677-1.203c2.947-5.229,4.504-11.158,4.504-17.148  C79.339,30.678,63.619,14.956,44.295,14.956z M46.075,51.909v21.022c0,1.188-0.963,2.151-2.151,2.151s-2.151-0.963-2.151-2.151  V51.909H20.748c-1.187,0-2.149-0.962-2.149-2.152c0-1.187,0.963-2.15,2.149-2.15h21.024V26.584c0-1.188,0.963-2.151,2.151-2.151  s2.151,0.964,2.151,2.151v21.022h21.021c1.189,0,2.152,0.964,2.152,2.15c0,1.189-0.963,2.152-2.152,2.152L46.075,51.909  L46.075,51.909z"/></svg>